<svg width="40" height="40" viewBox="0 0 40 40" fill="none" xmlns="http://www.w3.org/2000/svg">
<g clip-path="url(#clip0_381_364)">
<mask id="mask0_381_364" style="mask-type:luminance" maskUnits="userSpaceOnUse" x="0" y="0" width="40" height="40">
<path d="M40 0H0V40H40V0Z" fill="white"/>
</mask>
<g mask="url(#mask0_381_364)">
<path d="M35.3125 0H4.6875C2.09867 0 0 2.09867 0 4.6875V35.3125C0 37.9013 2.09867 40 4.6875 40H35.3125C37.9013 40 40 37.9013 40 35.3125V4.6875C40 2.09867 37.9013 0 35.3125 0Z" fill="#0052FF"/>
<path d="M19.9609 3.125C29.3022 3.125 36.875 10.6978 36.875 20.0391C36.875 29.3803 29.3022 36.9531 19.9609 36.9531C10.6197 36.9531 3.04688 29.3803 3.04688 20.0391C3.04688 10.6978 10.6197 3.125 19.9609 3.125Z" fill="#0052FF"/>
<path d="M19.9682 25.9166C16.6809 25.9166 14.0245 23.2529 14.0245 19.9729C14.0245 16.6928 16.6881 14.0291 19.9682 14.0291C22.9108 14.0291 25.3543 16.1718 25.824 18.9822H31.8117C31.3055 12.877 26.1982 8.07794 19.961 8.07794C13.3935 8.07794 8.06604 13.4054 8.06604 19.9729C8.06604 26.5404 13.3935 31.8677 19.961 31.8677C26.1982 31.8677 31.3055 27.0687 31.8117 20.9635H25.8167C25.347 23.774 22.9108 25.9166 19.9682 25.9166Z" fill="white"/>
</g>
</g>
<defs>
<clipPath id="clip0_381_364">
<rect width="40" height="40" fill="white"/>
</clipPath>
</defs>
</svg>
