<svg width="42" height="40" viewBox="0 0 42 40" fill="none" xmlns="http://www.w3.org/2000/svg">
<g clip-path="url(#clip0_381_372)">
<path d="M38.8412 1.66669L23.2334 13.2589L26.1196 6.41963L38.8412 1.66669Z" fill="#E2761B" stroke="#E2761B" stroke-linecap="round" stroke-linejoin="round"/>
<path d="M2.80979 1.66669L18.2921 13.3687L15.5471 6.41963L2.80979 1.66669ZM33.2255 28.5373L29.0686 34.9059L37.9627 37.3529L40.5196 28.6784L33.2255 28.5373ZM1.16272 28.6784L3.7039 37.3529L12.598 34.9059L8.44114 28.5373L1.16272 28.6784Z" fill="#E4761B" stroke="#E4761B" stroke-linecap="round" stroke-linejoin="round"/>
<path d="M12.0961 17.7765L9.61768 21.5255L18.449 21.9177L18.1353 12.4275L12.0961 17.7765ZM29.5549 17.7764L23.4373 12.3177L23.2333 21.9177L32.049 21.5255L29.5549 17.7764ZM12.598 34.9059L17.9 32.3177L13.3196 28.7412L12.598 34.9059ZM23.751 32.3177L29.0687 34.9059L28.3313 28.7412L23.751 32.3177Z" fill="#E4761B" stroke="#E4761B" stroke-linecap="round" stroke-linejoin="round"/>
<path d="M29.0686 34.9059L23.751 32.3177L24.1745 35.7844L24.1274 37.2432L29.0686 34.9059ZM12.598 34.9059L17.5393 37.2431L17.5079 35.7844L17.9 32.3177L12.598 34.9059Z" fill="#D7C1B3" stroke="#D7C1B3" stroke-linecap="round" stroke-linejoin="round"/>
<path d="M17.6177 26.451L13.1941 25.149L16.3157 23.7216L17.6177 26.451ZM24.0333 26.451L25.3353 23.7216L28.4726 25.149L24.0333 26.451Z" fill="#233447" stroke="#233447" stroke-linecap="round" stroke-linejoin="round"/>
<path d="M12.598 34.906L13.351 28.5373L8.44116 28.6786L12.598 34.906ZM28.3157 28.5373L29.0687 34.906L33.2255 28.6786L28.3157 28.5373ZM32.049 21.5256L23.2333 21.9177L24.049 26.4511L25.351 23.7217L28.4882 25.1491L32.049 21.5256ZM13.1941 25.1491L16.3314 23.7217L17.6177 26.4511L18.449 21.9177L9.61766 21.5256L13.1941 25.1491Z" fill="#CD6116" stroke="#CD6116" stroke-linecap="round" stroke-linejoin="round"/>
<path d="M9.61768 21.5255L13.3196 28.7413L13.1941 25.1491L9.61768 21.5255ZM28.4883 25.1491L28.3313 28.7413L32.049 21.5256L28.4883 25.1491ZM18.449 21.9178L17.6177 26.4511L18.6529 31.8001L18.8883 24.7569L18.449 21.9178ZM23.2333 21.9178L22.8098 24.7413L22.998 31.8001L24.049 26.4511L23.2333 21.9178Z" fill="#E4751F" stroke="#E4751F" stroke-linecap="round" stroke-linejoin="round"/>
<path d="M24.049 26.451L22.998 31.8L23.751 32.3177L28.3313 28.7413L28.4883 25.1491L24.049 26.451ZM13.1941 25.1491L13.3196 28.7413L17.9 32.3177L18.6529 31.8L17.6177 26.451L13.1941 25.1491Z" fill="#F6851B" stroke="#F6851B" stroke-linecap="round" stroke-linejoin="round"/>
<path d="M24.1274 37.2432L24.1745 35.7844L23.7824 35.4393H17.8687L17.5079 35.7844L17.5393 37.2432L12.598 34.9059L14.3235 36.3177L17.8216 38.749H23.8294L27.3432 36.3177L29.0687 34.9059L24.1274 37.2432Z" fill="#C0AD9E" stroke="#C0AD9E" stroke-linecap="round" stroke-linejoin="round"/>
<path d="M23.751 32.3177L22.9981 31.8H18.6529L17.9 32.3177L17.5078 35.7843L17.8686 35.4392H23.7823L24.1745 35.7843L23.751 32.3177Z" fill="#161616" stroke="#161616" stroke-linecap="round" stroke-linejoin="round"/>
<path d="M39.5 14.0118L40.8334 7.61179L38.8412 1.66669L23.751 12.8667L29.555 17.7765L37.7589 20.1765L39.5785 18.0589L38.7941 17.4941L40.049 16.349L39.0765 15.5961L40.3314 14.6393L39.5 14.0118ZM0.833374 7.61179L2.16671 14.0118L1.31965 14.6393L2.57455 15.5961L1.61769 16.349L2.87259 17.4941L2.08827 18.0589L3.8922 20.1765L12.0961 17.7765L17.9 12.8667L2.80985 1.66669L0.833374 7.61179Z" fill="#763D16" stroke="#763D16" stroke-linecap="round" stroke-linejoin="round"/>
<path d="M37.7588 20.1765L29.5549 17.7765L32.049 21.5255L28.3314 28.7411L33.2255 28.6784H40.5195L37.7588 20.1765ZM12.096 17.7765L3.89213 20.1765L1.16272 28.6784H8.44113L13.3195 28.7411L9.61763 21.5255L12.096 17.7765ZM23.2333 21.9176L23.751 12.8666L26.1352 6.41956H15.547L17.9 12.8666L18.449 21.9176L18.6372 24.7725L18.6529 31.8H22.998L23.0294 24.7725L23.2333 21.9176Z" fill="#F6851B" stroke="#F6851B" stroke-linecap="round" stroke-linejoin="round"/>
</g>
<defs>
<clipPath id="clip0_381_372">
<rect width="41.6667" height="40" fill="white"/>
</clipPath>
</defs>
</svg>
