<svg width="40" height="40" viewBox="0 0 40 40" fill="none" xmlns="http://www.w3.org/2000/svg">
<g clip-path="url(#clip0_381_386)">
<path d="M20.0073 38.1672C30.0367 38.1672 38.1672 30.0367 38.1672 20.0072C38.1672 9.97773 30.0367 1.84723 20.0073 1.84723C9.97779 1.84723 1.84729 9.97773 1.84729 20.0072C1.84729 30.0367 9.97779 38.1672 20.0073 38.1672Z" fill="#3396FF" stroke="#66B1FF" stroke-width="3" stroke-miterlimit="22.9256"/>
<path d="M12.9442 15.3616C16.8325 11.5607 23.1528 11.5607 27.0557 15.3616L27.5217 15.8131C27.711 16.0024 27.711 16.3082 27.5217 16.4975L25.9198 18.0558C25.8178 18.1577 25.6576 18.1577 25.5703 18.0558L24.9295 17.4296C22.2062 14.7791 17.8082 14.7791 15.0849 17.4296L14.4005 18.0994C14.2985 18.2014 14.1384 18.2014 14.051 18.0994L12.4491 16.5412C12.2597 16.3519 12.2597 16.0461 12.4491 15.8568L12.9588 15.3616H12.9442ZM30.3615 18.5946L31.7886 19.9926C31.9779 20.1819 31.9779 20.4878 31.7886 20.6771L25.3518 26.9537C25.1625 27.143 24.8421 27.143 24.6528 26.9537L20.08 22.4975C20.0363 22.4538 19.949 22.4538 19.9053 22.4975L15.3325 26.9537C15.1432 27.143 14.8228 27.143 14.6335 26.9537L8.19668 20.6771C8.00736 20.4878 8.00736 20.1819 8.19668 19.9926L9.62384 18.5946C9.81316 18.4053 10.1335 18.4053 10.3229 18.5946L14.8956 23.0508C14.9393 23.0945 15.0267 23.0945 15.0704 23.0508L19.6431 18.5946C19.8325 18.4053 20.1528 18.4053 20.3422 18.5946L24.9149 23.0508C24.9586 23.0945 25.046 23.0945 25.0897 23.0508L29.6624 18.5946C29.8518 18.4053 30.1721 18.4053 30.3615 18.5946Z" fill="white"/>
</g>
<defs>
<clipPath id="clip0_381_386">
<rect width="40" height="40" fill="white"/>
</clipPath>
</defs>
</svg>
