<svg width="198" height="198" viewBox="0 0 198 198" fill="none" xmlns="http://www.w3.org/2000/svg">
<circle cx="99" cy="99" r="99" fill="white"/>
<path d="M121.193 84.7262C118.124 97.0031 99.0142 90.7657 93.0734 89.0826L98.5191 67.499C104.658 69.2811 124.362 71.8553 121.193 84.7262ZM90.4 100.171L84.4591 124.032C91.7862 125.913 114.46 133.141 117.827 119.676C121.391 105.617 97.727 101.953 90.4 100.171ZM195.058 122.943C181.79 176.011 128.124 208.287 75.0528 195.02C21.9812 181.753 -10.2678 128.091 2.97044 75.0236C6.11555 62.4109 11.7147 50.5414 19.4481 40.0929C27.1815 29.6443 36.8976 20.8215 48.0415 14.1283C59.1855 7.43505 71.5389 3.00255 84.3962 1.08395C97.2536 -0.834644 110.363 -0.201764 122.976 2.94645C175.948 16.2134 208.227 69.8752 195.058 122.943ZM120.896 59.8755L125.352 42.0542L114.46 39.579L110.104 56.7073C107.232 56.0142 104.361 55.3212 101.391 54.7271L105.747 37.2029L94.9546 34.6287L90.499 52.3509C88.1227 51.7569 85.7463 51.2619 83.568 50.6678L68.6169 46.9056L65.6464 58.4894C65.6464 58.4894 73.7656 60.3705 73.5676 60.4695C78.0232 61.5586 78.8153 64.3308 78.6173 66.806L66.4386 115.616C65.9435 117.003 64.3593 118.785 61.4878 118.29C61.5869 118.389 53.5667 116.309 53.5667 116.309L48.2199 128.685L62.28 132.25C64.9533 132.943 67.5277 133.636 70.1021 134.23L65.5474 152.249L76.439 155.021L80.8946 137.101C83.8651 137.893 86.7365 138.586 89.5089 139.378L85.0532 157.1L95.9448 159.873L100.499 141.853C118.817 145.319 132.877 143.932 138.62 127.2C143.571 113.834 138.62 105.914 128.718 100.864C135.848 98.9832 141.194 94.5279 142.679 84.8252C144.66 71.6573 134.56 64.6278 120.896 59.8755Z" fill="#FCAA1A"/>
</svg>
