<svg width="34" height="28" viewBox="0 0 34 28" fill="none" xmlns="http://www.w3.org/2000/svg">
<circle cx="12" cy="12" r="12" fill="white"/>
<path d="M14.6901 10.2698C14.3181 11.758 12.0017 11.0019 11.2816 10.7979L11.9417 8.1817C12.6858 8.39771 15.0742 8.70974 14.6901 10.2698ZM10.9576 12.142L10.2375 15.0342C11.1256 15.2622 13.874 16.1383 14.2821 14.5061C14.7141 12.802 11.8457 12.358 10.9576 12.142ZM23.6434 14.9022C22.0352 21.3346 15.5302 25.2469 9.09731 23.6388C2.66438 22.0307 -1.24458 15.5262 0.360053 9.09376C0.741279 7.56496 1.41996 6.12623 2.35734 4.85974C3.29472 3.59325 4.47244 2.52382 5.82322 1.71252C7.17399 0.901218 8.67138 0.363946 10.2298 0.131388C11.7883 -0.101169 13.3773 -0.0244563 14.9061 0.357145C21.3271 1.96526 25.2396 8.46972 23.6434 14.9022ZM14.6541 7.25763L15.1942 5.09748L13.874 4.79746L13.3459 6.87361C12.9979 6.7896 12.6498 6.7056 12.2898 6.63359L12.8178 4.50944L11.5097 4.19742L10.9696 6.34557C10.6815 6.27356 10.3935 6.21356 10.1295 6.14155L8.3172 5.68552L7.95714 7.08962C7.95714 7.08962 8.94129 7.31764 8.91728 7.32964C9.45736 7.46165 9.55337 7.79767 9.52937 8.09769L8.05316 14.0141C7.99315 14.1821 7.80112 14.3981 7.45307 14.3381C7.46507 14.3501 6.49293 14.0981 6.49293 14.0981L5.84484 15.5982L7.54909 16.0303C7.87313 16.1143 8.18518 16.1983 8.49722 16.2703L7.94514 18.4544L9.26533 18.7905L9.80541 16.6183C10.1655 16.7143 10.5135 16.7983 10.8496 16.8943L10.3095 19.0425L11.6297 19.3785L12.1817 17.1943C14.4021 17.6144 16.1063 17.4464 16.8024 15.4182C17.4025 13.7981 16.8024 12.838 15.6022 12.226C16.4664 11.998 17.1145 11.4579 17.2945 10.2818C17.5345 8.68573 16.3103 7.83367 14.6541 7.25763Z" fill="#FCAA1A"/>
<g filter="url(#filter0_d_637_5321)">
<circle cx="24.5034" cy="19.4685" r="4.53147" fill="white"/>
<path d="M25.5192 18.8152C25.3787 19.3771 24.504 19.0916 24.2321 19.0146L24.4814 18.0267C24.7624 18.1082 25.6643 18.2261 25.5192 18.8152ZM24.1097 19.5222L23.8378 20.6143C24.1732 20.7004 25.2111 21.0312 25.3651 20.4149C25.5283 19.7714 24.4451 19.6037 24.1097 19.5222ZM28.9002 20.5645C28.2929 22.9935 25.8365 24.4709 23.4073 23.8636C20.9781 23.2564 19.5019 20.8001 20.1079 18.3711C20.2518 17.7938 20.5081 17.2505 20.8621 16.7722C21.2161 16.294 21.6608 15.8901 22.1709 15.5838C22.681 15.2774 23.2464 15.0745 23.8349 14.9867C24.4235 14.8989 25.0235 14.9278 25.6008 15.0719C28.0255 15.6792 29.503 18.1354 28.9002 20.5645ZM25.5056 17.6777L25.7096 16.862L25.2111 16.7487L25.0116 17.5327C24.8802 17.501 24.7488 17.4693 24.6128 17.4421L24.8122 16.6399L24.3182 16.5221L24.1143 17.3333C24.0055 17.3061 23.8967 17.2835 23.797 17.2563L23.1127 17.0841L22.9767 17.6143C22.9767 17.6143 23.3484 17.7004 23.3393 17.7049C23.5432 17.7548 23.5795 17.8816 23.5704 17.9949L23.013 20.2291C22.9903 20.2926 22.9178 20.3741 22.7864 20.3515C22.7909 20.356 22.4238 20.2608 22.4238 20.2608L22.1791 20.8273L22.8226 20.9905C22.945 21.0222 23.0628 21.0539 23.1807 21.0811L22.9722 21.9059L23.4707 22.0328L23.6747 21.2125C23.8106 21.2488 23.9421 21.2805 24.069 21.3167L23.865 22.1279L24.3635 22.2548L24.572 21.43C25.4105 21.5887 26.054 21.5252 26.3169 20.7593C26.5435 20.1475 26.3169 19.785 25.8637 19.5539C26.19 19.4678 26.4347 19.2638 26.5027 18.8197C26.5933 18.217 26.1311 17.8952 25.5056 17.6777Z" fill="#FCAA1A"/>
</g>
<defs>
<filter id="filter0_d_637_5321" x="15.9719" y="10.9371" width="17.063" height="17.0629" filterUnits="userSpaceOnUse" color-interpolation-filters="sRGB">
<feFlood flood-opacity="0" result="BackgroundImageFix"/>
<feColorMatrix in="SourceAlpha" type="matrix" values="0 0 0 0 0 0 0 0 0 0 0 0 0 0 0 0 0 0 127 0" result="hardAlpha"/>
<feOffset/>
<feGaussianBlur stdDeviation="2"/>
<feComposite in2="hardAlpha" operator="out"/>
<feColorMatrix type="matrix" values="0 0 0 0 0 0 0 0 0 0 0 0 0 0 0 0 0 0 0.25 0"/>
<feBlend mode="normal" in2="BackgroundImageFix" result="effect1_dropShadow_637_5321"/>
<feBlend mode="normal" in="SourceGraphic" in2="effect1_dropShadow_637_5321" result="shape"/>
</filter>
</defs>
</svg>
