<svg width="20" height="20" viewBox="0 0 20 20" fill="none" xmlns="http://www.w3.org/2000/svg">
<circle cx="10" cy="10" r="10" fill="white"/>
<path d="M12.2418 8.55821C11.9317 9.7983 10.0014 9.16825 9.40135 8.99824L9.95143 6.81808C10.5715 6.9981 12.5618 7.25811 12.2418 8.55821ZM9.13131 10.1183L8.53123 12.5285C9.27133 12.7185 11.5617 13.4486 11.9017 12.0885C12.2618 10.6684 9.87142 10.2983 9.13131 10.1183ZM19.7028 12.4185C18.3626 17.7789 12.9419 21.0391 7.58109 19.699C2.22032 18.3589 -1.03715 12.9385 0.300044 7.57814C0.617733 6.30413 1.1833 5.10519 1.96445 4.04978C2.7456 2.99438 3.72703 2.10318 4.85268 1.4271C5.97833 0.751015 7.22615 0.303288 8.52487 0.10949C9.82359 -0.0843075 11.1478 -0.0203802 12.4218 0.297621C17.7726 1.63772 21.033 7.0581 19.7028 12.4185ZM12.2118 6.04803L12.6618 4.2479L11.5617 3.99788L11.1216 5.72801C10.8316 5.658 10.5415 5.588 10.2415 5.52799L10.6815 3.75787L9.59138 3.49785L9.14131 5.28797C8.90128 5.22797 8.66124 5.17797 8.44121 5.11796L6.931 4.73794L6.63095 5.90802C6.63095 5.90802 7.45107 6.09803 7.43107 6.10803C7.88113 6.21804 7.96114 6.49806 7.94114 6.74808L6.71096 11.6784C6.66096 11.8184 6.50093 11.9985 6.21089 11.9484C6.22089 11.9584 5.41078 11.7484 5.41078 11.7484L4.8707 12.9985L6.2909 13.3585C6.56094 13.4286 6.82098 13.4986 7.08102 13.5586L6.62095 15.3787L7.72111 15.6587L8.17117 13.8486C8.47122 13.9286 8.76126 13.9986 9.0413 14.0786L8.59123 15.8687L9.69139 16.1487L10.1515 14.3286C12.0017 14.6786 13.4219 14.5386 14.002 12.8485C14.5021 11.4984 14.002 10.6984 13.0019 10.1883C13.722 9.99831 14.262 9.54828 14.4121 8.56821C14.6121 7.23811 13.592 6.52806 12.2118 6.04803Z" fill="#FCAA1A"/>
</svg>
