<svg width="199" height="198" viewBox="0 0 199 198" fill="none" xmlns="http://www.w3.org/2000/svg">
<path d="M99.7712 198C154.447 198 198.771 153.676 198.771 99C198.771 44.3238 154.447 0 99.7712 0C45.0951 0 0.77124 44.3238 0.77124 99C0.77124 153.676 45.0951 198 99.7712 198Z" fill="#627EEA"/>
<path d="M102.855 24.7368V79.6225L149.243 100.354L102.855 24.7368Z" fill="white" fill-opacity="0.602"/>
<path d="M102.856 24.7368L56.4683 100.354L102.856 79.6225V24.7368Z" fill="white"/>
<path d="M102.855 135.915V173.21L149.27 108.987L102.855 135.915Z" fill="white" fill-opacity="0.602"/>
<path d="M102.856 173.21V135.915L56.4683 108.987L102.856 173.21Z" fill="white"/>
<path d="M102.855 127.282L149.243 100.353L102.855 79.6221V127.282Z" fill="white" fill-opacity="0.2"/>
<path d="M56.4683 100.353L102.856 127.282V79.6221L56.4683 100.353Z" fill="white" fill-opacity="0.602"/>
</svg>
