<svg width="21" height="20" viewBox="0 0 21 20" fill="none" xmlns="http://www.w3.org/2000/svg">
<path d="M10.6534 20C16.1762 20 20.6534 15.5228 20.6534 10C20.6534 4.47715 16.1762 0 10.6534 0C5.13053 0 0.653381 4.47715 0.653381 10C0.653381 15.5228 5.13053 20 10.6534 20Z" fill="#627EEA"/>
<path d="M10.9649 2.49854V8.04255L15.6505 10.1366L10.9649 2.49854Z" fill="white" fill-opacity="0.602"/>
<path d="M10.965 2.49854L6.27936 10.1366L10.965 8.04255V2.49854Z" fill="white"/>
<path d="M10.9649 13.7289V17.4959L15.6533 11.0088L10.9649 13.7289Z" fill="white" fill-opacity="0.602"/>
<path d="M10.965 17.4959V13.7289L6.27936 11.0088L10.965 17.4959Z" fill="white"/>
<path d="M10.9649 12.8566L15.6505 10.1365L10.9649 8.04248V12.8566Z" fill="white" fill-opacity="0.2"/>
<path d="M6.27936 10.1365L10.965 12.8566V8.04248L6.27936 10.1365Z" fill="white" fill-opacity="0.602"/>
</svg>
