<svg width="457" height="246" viewBox="0 0 457 246" fill="none" xmlns="http://www.w3.org/2000/svg">
<path opacity="0.04" d="M111.009 212.185C223.228 212.185 314.2 121.213 314.2 8.99348C314.2 -103.226 223.228 -194.198 111.009 -194.198C-1.21111 -194.198 -92.1832 -103.226 -92.1832 8.99348C-92.1832 121.213 -1.21111 212.185 111.009 212.185Z" fill="#205FEC"/>
<path opacity="0.04" d="M284 182C379.545 86.4548 379.545 -68.4547 284 -164C188.455 -259.545 33.5452 -259.545 -62 -164C-157.545 -68.4547 -157.545 86.4547 -62 182C33.5452 277.545 188.455 277.545 284 182Z" fill="#205FEC"/>
<path opacity="0.04" d="M215.755 113.755C273.61 55.9004 273.61 -37.9004 215.755 -95.755C157.901 -153.61 64.0998 -153.61 6.24521 -95.755C-51.6094 -37.9004 -51.6094 55.9004 6.2452 113.755C64.0998 171.61 157.901 171.61 215.755 113.755Z" fill="#205FEC"/>
</svg>
