<svg width="403" height="236" viewBox="0 0 403 236" fill="none" xmlns="http://www.w3.org/2000/svg">
<path opacity="0.04" d="M346.009 337.185C458.228 337.185 549.2 246.213 549.2 133.993C549.2 21.7738 458.228 -69.1982 346.009 -69.1982C233.789 -69.1982 142.817 21.7738 142.817 133.993C142.817 246.213 233.789 337.185 346.009 337.185Z" fill="#205FEC"/>
<path opacity="0.04" d="M519 307C614.545 211.455 614.545 56.5453 519 -39C423.455 -134.545 268.545 -134.545 173 -39C77.4547 56.5453 77.4547 211.455 173 307C268.545 402.545 423.455 402.545 519 307Z" fill="#205FEC"/>
<path opacity="0.04" d="M450.755 238.755C508.61 180.9 508.61 87.0996 450.755 29.245C392.901 -28.6095 299.1 -28.6095 241.245 29.245C183.391 87.0996 183.391 180.9 241.245 238.755C299.1 296.61 392.901 296.61 450.755 238.755Z" fill="#205FEC"/>
</svg>
