<svg width="522" height="287" viewBox="0 0 522 287" fill="none" xmlns="http://www.w3.org/2000/svg">
<path opacity="0.04" d="M254.009 454.185C366.228 454.185 457.2 363.213 457.2 250.993C457.2 138.774 366.228 47.8018 254.009 47.8018C141.789 47.8018 50.8168 138.774 50.8168 250.993C50.8168 363.213 141.789 454.185 254.009 454.185Z" fill="#205FEC"/>
<path opacity="0.04" d="M427 424C522.545 328.455 522.545 173.545 427 78C331.455 -17.5452 176.545 -17.5452 81 78C-14.5453 173.545 -14.5453 328.455 81 424C176.545 519.545 331.455 519.545 427 424Z" fill="#205FEC"/>
<path opacity="0.04" d="M358.755 355.755C416.61 297.9 416.61 204.1 358.755 146.245C300.901 88.3905 207.1 88.3905 149.245 146.245C91.3906 204.1 91.3906 297.9 149.245 355.755C207.1 413.61 300.901 413.61 358.755 355.755Z" fill="#205FEC"/>
</svg>
