<svg width="121" height="121" viewBox="0 0 121 121" fill="none" xmlns="http://www.w3.org/2000/svg">
<g clip-path="url(#clip0_537_1292)">
<path d="M37.8125 14.6523L60.5 7.5625L80.3516 14.6523V111.547H37.8125V14.6523Z" fill="#E4E4E4"/>
<path d="M60.5284 -0.118164C45.8666 -0.118164 31.1953 9.68945 31.1953 29.3047V43.4844H23.6328C15.1534 43.4844 9.92578 49.3217 9.92578 57.6641V106.82C9.92578 115.366 15.5693 120.972 24.1055 121L96.8945 121.236C105.393 121.265 111.074 115.338 111.074 106.82V57.6641C111.074 49.1846 105.369 43.2102 96.8945 43.4844H89.8047L89.8189 29.3047C89.8425 9.68945 75.1902 -0.118164 60.5284 -0.118164ZM60.5 11.8164C70.4541 11.8164 77.5156 19.1331 77.5156 28.3594C77.5156 38.0346 73.7344 47.2656 60.5 51.9922C62.8633 48.2109 63.8086 46.793 64.2812 43.0117C50.5742 44.4297 43.4844 37.2453 43.4844 28.3594C43.4844 19.4734 50.5459 11.8164 60.5 11.8164ZM60.5 57.1914C67.5237 57.1914 73.2617 62.8018 73.2617 69.9531C73.2617 77.1044 67.5898 81.2969 65.0186 81.8877C65.0186 81.8877 77.043 85.5508 77.043 98.3125V103.512C77.043 106.348 75.1523 108.238 72.3164 108.238H48.2109C45.375 108.238 43.4844 106.348 43.4844 103.512V98.3125C43.4844 85.5508 55.953 81.9019 55.953 81.9019C53.4054 81.3016 47.7383 77.043 47.7383 69.9531C47.7383 62.8633 53.4763 57.1914 60.5 57.1914Z" fill="#205FEC"/>
</g>
<defs>
<clipPath id="clip0_537_1292">
<rect width="121" height="121" fill="white"/>
</clipPath>
</defs>
</svg>
