<svg width="20" height="20" viewBox="0 0 20 20" fill="none" xmlns="http://www.w3.org/2000/svg">
<g clip-path="url(#clip0_432_1261)">
<path d="M20 9.99984C20 15.5231 15.523 20 9.99977 20C4.47688 20 0 15.5231 0 9.99984C0 4.47695 4.47688 0 9.99977 0C15.523 0 20 4.47695 20 9.99984Z" fill="#EC1C24"/>
<path d="M9.14249 7.88207L11.5402 10.2789C11.8863 10.6255 12.4483 10.6255 12.7952 10.2789C13.1414 9.93246 13.1422 9.37098 12.7952 9.02441L10.3973 6.6266C8.68163 4.91051 5.90866 4.88285 4.15655 6.53941C4.14019 6.553 4.12442 6.56729 4.10929 6.58223C4.10163 6.58988 4.09538 6.59801 4.0878 6.60488C4.07999 6.61238 4.07202 6.6191 4.0646 6.6266C4.04944 6.64168 4.03561 6.65754 4.02241 6.67324C2.36499 8.42613 2.39351 11.1992 4.10936 12.9152L6.50718 15.3125C6.85405 15.6589 7.41522 15.6589 7.76202 15.3125C8.10905 14.9659 8.10905 14.4037 7.76288 14.0579L5.36499 11.6601C4.31827 10.6138 4.31124 8.91566 5.34327 7.86035C6.39843 6.82832 8.09561 6.83574 9.14249 7.88207ZM12.2372 4.68887C11.8907 5.03551 11.8907 5.59691 12.2381 5.94348L14.6351 8.34137C15.6812 9.38762 15.688 11.0855 14.656 12.1411C13.6005 13.1723 11.9039 13.1654 10.8573 12.119L8.45952 9.72145C8.1128 9.3748 7.55069 9.3748 7.20436 9.72145C6.85726 10.0678 6.85726 10.631 7.20436 10.9765L9.6014 13.3745C11.3176 15.0905 14.0903 15.1184 15.8427 13.4617C15.859 13.4473 15.8743 13.4339 15.8904 13.4188C15.8977 13.4114 15.9046 13.4038 15.9117 13.3961C15.9195 13.3887 15.9271 13.3818 15.9344 13.3736C15.9498 13.3593 15.9629 13.3436 15.9766 13.3271C17.634 11.575 17.6062 8.80285 15.8905 7.08582L13.4926 4.68879C13.1461 4.34168 12.5834 4.34168 12.2372 4.68887Z" fill="white"/>
</g>
<defs>
<clipPath id="clip0_432_1261">
<rect width="20" height="20" fill="white"/>
</clipPath>
</defs>
</svg>
