<svg width="177" height="147" viewBox="0 0 177 147" fill="none" xmlns="http://www.w3.org/2000/svg">
<circle cx="71.5" cy="71.5" r="71.5" fill="white"/>
<path d="M87.5286 61.1912C85.3117 70.0578 71.5103 65.553 67.2197 64.3374L71.1527 48.7493C75.5863 50.0364 89.8169 51.8955 87.5286 61.1912ZM65.2889 72.346L60.9983 89.5787C66.29 90.9373 82.6659 96.1572 85.0972 86.4325C87.6716 76.2787 70.5806 73.6331 65.2889 72.346ZM140.875 88.7921C131.293 127.119 92.5343 150.429 54.2048 140.848C15.8753 131.266 -7.41561 92.5104 2.14532 54.1837C4.41679 45.0746 8.46062 36.5021 14.0458 28.956C19.6311 21.4098 26.6483 15.0377 34.6967 10.2038C42.745 5.36976 51.667 2.16851 60.9528 0.782856C70.2387 -0.602799 79.7066 -0.145719 88.8158 2.12799C127.074 11.7097 150.386 50.4654 140.875 88.7921ZM87.314 43.2434L90.532 30.3725L82.6659 28.5849L79.5194 40.9552C77.4456 40.4547 75.3718 39.9542 73.2265 39.5251L76.373 26.8687L68.5783 25.0096L65.3604 37.809C63.6441 37.38 61.9279 37.0225 60.3547 36.5934L49.5566 33.8762L47.4113 42.2423C47.4113 42.2423 53.2752 43.6009 53.1321 43.6724C56.3501 44.459 56.9222 46.4611 56.7792 48.2488L47.9834 83.5008C47.6258 84.5018 46.4817 85.7889 44.4079 85.4314C44.4794 85.5029 38.6871 84.0013 38.6871 84.0013L34.8255 92.9394L44.98 95.5136C46.9107 96.0141 48.77 96.5147 50.6293 96.9437L47.3398 109.958L55.2059 111.96L58.4239 99.0174C60.5692 99.5894 62.643 100.09 64.6453 100.662L61.4273 113.461L69.2934 115.464L72.5829 102.45C85.8123 104.952 95.9668 103.951 100.114 91.8668C103.69 82.2137 100.114 76.4933 92.9633 72.8465C98.1121 71.4879 101.974 68.2702 103.046 61.2627C104.477 51.7525 97.1825 46.6756 87.314 43.2434Z" fill="#FCAA1A"/>
<g filter="url(#filter0_d_646_6145)">
<circle cx="146" cy="116" r="27" fill="white"/>
<path d="M152.053 112.107C151.216 115.455 146.004 113.754 144.384 113.295L145.869 107.409C147.543 107.895 152.917 108.597 152.053 112.107ZM143.655 116.319L142.034 122.827C144.033 123.34 150.216 125.311 151.135 121.639C152.107 117.805 145.653 116.805 143.655 116.319ZM172.198 122.53C168.579 137.003 153.943 145.806 139.469 142.187C124.995 138.569 116.2 123.934 119.81 109.461C120.668 106.021 122.195 102.784 124.304 99.9344C126.413 97.0848 129.063 94.6786 132.102 92.8532C135.141 91.0277 138.511 89.8189 142.017 89.2956C145.524 88.7724 149.099 88.945 152.539 89.8036C166.986 93.4218 175.789 108.057 172.198 122.53ZM151.972 105.33L153.187 100.469L150.216 99.7943L149.028 104.466C148.245 104.277 147.462 104.088 146.652 103.926L147.84 99.1462L144.897 98.4442L143.682 103.278C143.033 103.116 142.385 102.981 141.791 102.818L137.714 101.792L136.904 104.952C136.904 104.952 139.118 105.465 139.064 105.492C140.279 105.789 140.495 106.545 140.441 107.22L137.12 120.532C136.985 120.91 136.553 121.396 135.769 121.261C135.796 121.288 133.609 120.721 133.609 120.721L132.151 124.096L135.985 125.068C136.715 125.257 137.417 125.446 138.119 125.608L136.877 130.522L139.847 131.279L141.062 126.391C141.872 126.607 142.655 126.796 143.412 127.012L142.196 131.846L145.167 132.602L146.409 127.687C151.405 128.632 155.239 128.254 156.805 123.691C158.156 120.046 156.805 117.886 154.105 116.508C156.049 115.995 157.508 114.78 157.913 112.134C158.453 108.543 155.698 106.626 151.972 105.33Z" fill="#FCAA1A"/>
</g>
<defs>
<filter id="filter0_d_646_6145" x="115" y="85" width="62" height="62" filterUnits="userSpaceOnUse" color-interpolation-filters="sRGB">
<feFlood flood-opacity="0" result="BackgroundImageFix"/>
<feColorMatrix in="SourceAlpha" type="matrix" values="0 0 0 0 0 0 0 0 0 0 0 0 0 0 0 0 0 0 127 0" result="hardAlpha"/>
<feOffset/>
<feGaussianBlur stdDeviation="2"/>
<feComposite in2="hardAlpha" operator="out"/>
<feColorMatrix type="matrix" values="0 0 0 0 0 0 0 0 0 0 0 0 0 0 0 0 0 0 0.25 0"/>
<feBlend mode="normal" in2="BackgroundImageFix" result="effect1_dropShadow_646_6145"/>
<feBlend mode="normal" in="SourceGraphic" in2="effect1_dropShadow_646_6145" result="shape"/>
</filter>
</defs>
</svg>
