<svg width="100" height="100" viewBox="0 0 100 100" fill="none" xmlns="http://www.w3.org/2000/svg">
<g clip-path="url(#clip0_646_6217)">
<rect width="100" height="100" rx="50" fill="white"/>
<path d="M50 0C40.1109 0 30.444 2.93245 22.2215 8.42652C13.9991 13.9206 7.59043 21.7295 3.80604 30.8658C0.0216641 40.0021 -0.968502 50.0555 0.960758 59.7545C2.89002 69.4536 7.65206 78.3627 14.6447 85.3553C21.6373 92.3479 30.5464 97.11 40.2455 99.0392C49.9445 100.968 59.9979 99.9783 69.1342 96.194C78.2705 92.4096 86.0794 86.0009 91.5735 77.7785C97.0676 69.556 100 59.8891 100 50C100 36.7392 94.7322 24.0215 85.3553 14.6447C75.9785 5.26784 63.2608 0 50 0ZM80 57.92C79.9947 61.0559 78.7467 64.0618 76.5292 66.2792C74.3118 68.4966 71.3059 69.7447 68.17 69.75H26.83L32.73 75.66C33.1025 76.0347 33.3116 76.5416 33.3116 77.07C33.3116 77.5984 33.1025 78.1053 32.73 78.48C32.3567 78.8556 31.8496 79.0677 31.32 79.07C31.0561 79.0702 30.7948 79.0182 30.551 78.9169C30.3073 78.8156 30.0861 78.6672 29.9 78.48L20.59 69.17C20.4028 68.9839 20.2544 68.7627 20.1531 68.519C20.0518 68.2752 19.9998 68.0139 20 67.75C20.0023 67.2204 20.2144 66.7133 20.59 66.34L29.9 57C30.2753 56.6247 30.7843 56.4139 31.315 56.4139C31.8457 56.4139 32.3547 56.6247 32.73 57C33.1053 57.3753 33.3161 57.8843 33.3161 58.415C33.3161 58.9457 33.1053 59.4547 32.73 59.83L26.83 65.73H68.17C70.2424 65.7274 72.2294 64.9043 73.6967 63.4408C75.1639 61.9773 75.9921 59.9923 76 57.92V47.92C76 47.3896 76.2107 46.8808 76.5858 46.5058C76.9609 46.1307 77.4696 45.92 78 45.92C78.5304 45.92 79.0391 46.1307 79.4142 46.5058C79.7893 46.8808 80 47.3896 80 47.92V57.92ZM79.41 33.66L70.1 43C69.9139 43.1872 69.6927 43.3357 69.449 43.4369C69.2053 43.5382 68.9439 43.5902 68.68 43.59C68.2836 43.5903 67.8961 43.4728 67.5666 43.2525C67.2371 43.0321 66.9805 42.7188 66.8294 42.3523C66.6783 41.9858 66.6395 41.5827 66.718 41.1942C66.7964 40.8056 66.9886 40.4491 67.27 40.17L73.17 34.27H31.83C29.7576 34.2726 27.7706 35.0957 26.3033 36.5592C24.8361 38.0227 24.0079 40.0076 24 42.08V52.08C24 52.6104 23.7893 53.1191 23.4142 53.4942C23.0392 53.8693 22.5305 54.08 22 54.08C21.4696 54.08 20.9609 53.8693 20.5858 53.4942C20.2107 53.1191 20 52.6104 20 52.08V42.08C20.0053 38.9441 21.2534 35.9382 23.4708 33.7208C25.6882 31.5034 28.6941 30.2553 31.83 30.25H73.17L67.27 24.34C66.9259 23.9589 66.7416 23.4602 66.7551 22.9469C66.7687 22.4337 66.979 21.9453 67.3427 21.583C67.7064 21.2206 68.1955 21.0119 68.7088 21.0002C69.222 20.9885 69.7202 21.1746 70.1 21.52L79.41 30.83C79.596 31.0157 79.7435 31.2363 79.8441 31.4791C79.9448 31.7219 79.9966 31.9822 79.9966 32.245C79.9966 32.5078 79.9448 32.7681 79.8441 33.0109C79.7435 33.2537 79.596 33.4742 79.41 33.66Z" fill="#424242"/>
</g>
<defs>
<clipPath id="clip0_646_6217">
<rect width="100" height="100" rx="50" fill="white"/>
</clipPath>
</defs>
</svg>
