<svg width="206" height="237" viewBox="0 0 206 237" fill="none" xmlns="http://www.w3.org/2000/svg">
<path d="M102.967 118.888L205.253 59.4517V177.556L102.967 237V118.888Z" fill="#1643E3"/>
<path d="M182.68 80.6646L125.434 113.935L125.413 122.882L117.677 127.374L117.648 136.328L109.913 140.82V206.932L117.648 202.433L117.619 211.38L125.362 206.889L125.333 215.836L182.578 182.573L182.607 173.618L190.343 169.127L190.372 160.172L198.107 155.681V89.5681L190.372 94.067L190.393 85.1199L182.658 89.6116L182.68 80.6646Z" fill="url(#paint0_linear_633_2261)"/>
<path d="M148.042 185.236L159.609 178.516L159.652 165.128L148.078 171.855L148.042 185.236Z" fill="url(#paint1_linear_633_2261)"/>
<path d="M168.298 116.632L168.32 109.942L139.65 126.602L139.628 133.293L133.845 136.66L133.809 150.033L145.375 143.314L145.397 136.624L162.5 126.69L162.457 140.07L156.804 143.357L156.782 150.048L148.104 155.084L148.067 168.472L159.641 161.745L159.656 155.055L168.334 150.012L168.356 143.321L174.009 140.034L174.089 113.273L168.298 116.632Z" fill="url(#paint2_linear_633_2261)"/>
<path d="M0 59.444L102.286 0L205.239 59.444L102.953 118.881L0 59.444Z" fill="#1643E3"/>
<path d="M175.549 50.4379L117.934 17.1748L110.191 21.6665L102.405 17.1748L94.6701 21.6665L86.884 17.1748L29.6387 50.4379L37.4247 54.9369L29.6895 59.4358L37.4755 63.9275L29.7403 68.4264L87.3557 101.69L95.0982 97.1979L102.884 101.69L110.62 97.1979L118.406 101.69L175.651 68.4264L167.865 63.9275L175.6 59.4358L167.814 54.9369L175.549 50.4379Z" fill="url(#paint3_linear_633_2261)"/>
<path d="M67.7178 72.964L79.3642 79.6906L90.9381 72.964L79.2917 66.2373L67.7178 72.964Z" fill="url(#paint4_linear_633_2261)"/>
<path d="M137.171 56.0354L142.954 52.6757L114.095 36.0151L108.312 39.3748L102.485 36.0151L90.9186 42.7345L102.565 49.4612L108.348 46.1015L125.561 56.0354L113.987 62.7621L108.29 59.4749L102.514 62.8346L93.7776 57.7915L82.2109 64.5181L93.8574 71.2447L99.6408 67.8778L108.377 72.921L114.161 69.5613L119.857 72.8484L142.99 59.4024L137.171 56.0354Z" fill="url(#paint5_linear_633_2261)"/>
<path d="M102.953 118.888V237L0 177.556V59.4517L102.953 118.888Z" fill="#1643E3"/>
<path d="M102.967 120.47L205.253 61.0336V59.4517L102.967 118.888V120.47Z" fill="#1643E3"/>
<path d="M0 61.0336L102.953 120.47V118.888L0 59.4517V61.0336Z" fill="#1643E3"/>
<g style="mix-blend-mode:multiply">
<path d="M102.967 236.999L205.253 177.555V175.973L102.967 235.417V236.999Z" fill="#1643E3"/>
</g>
<g style="mix-blend-mode:multiply">
<path d="M0 177.555L102.953 236.999V235.417L0 175.973V177.555Z" fill="#1643E3"/>
</g>
<path d="M80.2497 113.935L22.6341 80.6646L22.6051 89.6116L14.819 85.12L14.79 94.067L7.00391 89.5681V155.884L14.79 160.376L14.7682 169.33L22.5543 173.822L22.5253 182.769L80.1481 216.039L80.1772 207.092L87.9633 211.584L87.985 202.637L95.7784 207.136V140.82L87.985 136.321L88.014 127.374L80.228 122.882L80.2497 113.935Z" fill="url(#paint6_linear_633_2261)"/>
<path d="M45.3633 178.537L57.017 185.264L57.0533 171.876L45.4068 165.157L45.3633 178.537Z" fill="url(#paint7_linear_633_2261)"/>
<path d="M65.8889 133.293L65.8308 126.603L36.9722 109.942L37.023 116.633L31.1309 113.273L31.1671 126.647L42.8136 133.373L42.7556 126.69L59.9677 136.624L60.004 150.005L54.2352 146.725L54.2932 153.401L45.484 148.365L45.5203 161.746L57.1667 168.472L57.1159 161.782L65.8454 166.825L65.8671 160.135L71.6359 163.415V136.66L65.8889 133.293Z" fill="url(#paint8_linear_633_2261)"/>
<defs>
<linearGradient id="paint0_linear_633_2261" x1="174.081" y1="96.8317" x2="124.368" y2="224.181" gradientUnits="userSpaceOnUse">
<stop stop-color="white"/>
<stop offset="1" stop-color="#E6F3FF"/>
</linearGradient>
<linearGradient id="paint1_linear_633_2261" x1="173.657" y1="115.459" x2="149.348" y2="188.748" gradientUnits="userSpaceOnUse">
<stop stop-color="#303336"/>
<stop offset="1" stop-color="#222426"/>
</linearGradient>
<linearGradient id="paint2_linear_633_2261" x1="162.718" y1="111.85" x2="138.409" y2="185.14" gradientUnits="userSpaceOnUse">
<stop stop-color="#303336"/>
<stop offset="1" stop-color="#222426"/>
</linearGradient>
<linearGradient id="paint3_linear_633_2261" x1="100.511" y1="20.2152" x2="105.83" y2="117.937" gradientUnits="userSpaceOnUse">
<stop stop-color="white"/>
<stop offset="1" stop-color="#E6F3FF"/>
</linearGradient>
<linearGradient id="paint4_linear_633_2261" x1="102.664" y1="38.9461" x2="72.5505" y2="82.8471" gradientUnits="userSpaceOnUse">
<stop stop-color="#303336"/>
<stop offset="1" stop-color="#222426"/>
</linearGradient>
<linearGradient id="paint5_linear_633_2261" x1="118.036" y1="49.4974" x2="87.9218" y2="93.3985" gradientUnits="userSpaceOnUse">
<stop stop-color="#303336"/>
<stop offset="1" stop-color="#222426"/>
</linearGradient>
<linearGradient id="paint6_linear_633_2261" x1="75.7725" y1="112.571" x2="9.01417" y2="210.532" gradientUnits="userSpaceOnUse">
<stop stop-color="white"/>
<stop offset="1" stop-color="#E6F3FF"/>
</linearGradient>
<linearGradient id="paint7_linear_633_2261" x1="76.5875" y1="127.786" x2="40.6685" y2="194.908" gradientUnits="userSpaceOnUse">
<stop stop-color="#303336"/>
<stop offset="1" stop-color="#222426"/>
</linearGradient>
<linearGradient id="paint8_linear_633_2261" x1="61.3972" y1="119.63" x2="25.4782" y2="186.751" gradientUnits="userSpaceOnUse">
<stop stop-color="#303336"/>
<stop offset="1" stop-color="#222426"/>
</linearGradient>
</defs>
</svg>
