<svg width="128" height="143" viewBox="0 0 128 143" fill="none" xmlns="http://www.w3.org/2000/svg">
<path d="M119.436 29.4586L72.5637 2.30126C67.2684 -0.767086 60.7316 -0.767086 55.4363 2.30126L8.56374 29.4586C3.26841 32.527 0 38.206 0 44.3426V98.6574C0 104.803 3.26841 110.473 8.56374 113.541L55.4363 140.699C60.7316 143.767 67.2684 143.767 72.5637 140.699L119.436 113.541C124.732 110.473 128 104.794 128 98.6574V44.3426C128 38.1975 124.732 32.527 119.436 29.4586Z" fill="url(#paint0_linear_491_1590)"/>
<path d="M63.9999 129.443C63.3665 129.443 62.7415 129.273 62.1926 128.959L15.32 101.802C14.2052 101.158 13.5127 99.9543 13.5127 98.6575V44.3428C13.5127 43.0544 14.2052 41.8508 15.32 41.1981L62.1926 14.0408C62.7415 13.7271 63.3665 13.5576 63.9999 13.5576C64.6333 13.5576 65.2583 13.7271 65.8072 14.0408L112.68 41.1981C113.795 41.8423 114.487 43.0459 114.487 44.3428V98.6575C114.487 99.9459 113.795 101.149 112.68 101.802L65.8072 128.959C65.2583 129.282 64.6333 129.443 63.9999 129.443Z" fill="#385551"/>
<path d="M63.9999 129.443C63.3665 129.443 62.7415 129.273 62.1926 128.959L15.32 101.802C14.2052 101.158 13.5127 99.9543 13.5127 98.6575V44.3428C13.5127 43.0544 14.2052 41.8508 15.32 41.1981L62.1926 14.0408C62.7415 13.7271 63.3665 13.5576 63.9999 13.5576C64.6333 13.5576 65.2583 13.7271 65.8072 14.0408L112.68 41.1981C113.795 41.8423 114.487 43.0459 114.487 44.3428V98.6575C114.487 99.9459 113.795 101.149 112.68 101.802L65.8072 128.959C65.2583 129.282 64.6333 129.443 63.9999 129.443Z" fill="#1B1B1B"/>
<path d="M63.9998 134.994L9.21387 103.251V39.7654L9.51791 39.5874L63.9998 8.02246L118.786 39.7654V103.251L118.482 103.429L63.9998 134.994ZM10.4469 102.539L63.9998 133.579L117.561 102.548V40.4859L64.0083 9.44644L10.4554 40.4859V102.548L10.4469 102.539Z" fill="white"/>
<path d="M128 57.5146H0V95.9367H128V57.5146Z" fill="#1643E3"/>
<path d="M22.179 74.0994C22.0606 73.7159 21.8973 73.3726 21.6889 73.0696C21.4853 72.7618 21.2391 72.4991 20.9503 72.2812C20.6662 72.0634 20.3395 71.9001 19.9702 71.7912C19.6009 71.6776 19.1984 71.6207 18.7628 71.6207C17.9815 71.6207 17.2855 71.8172 16.6747 72.2102C16.0639 72.6032 15.5833 73.1809 15.233 73.9432C14.8873 74.7008 14.7145 75.6241 14.7145 76.7131C14.7145 77.8116 14.8873 78.742 15.233 79.5043C15.5786 80.2666 16.0592 80.8466 16.6747 81.2443C17.2902 81.6373 18.0052 81.8338 18.8196 81.8338C19.5582 81.8338 20.1974 81.6918 20.7372 81.4077C21.2817 81.1236 21.7008 80.7211 21.9943 80.2003C22.2879 79.6747 22.4347 79.0592 22.4347 78.3537L23.0312 78.446H19.0824V76.3864H24.9844V78.1335C24.9844 79.3788 24.7192 80.456 24.1889 81.3651C23.6586 82.2741 22.9295 82.9749 22.0014 83.4673C21.0734 83.955 20.008 84.1989 18.8054 84.1989C17.4654 84.1989 16.2888 83.8982 15.2756 83.2969C14.267 82.6908 13.4787 81.8314 12.9105 80.7188C12.3471 79.6013 12.0653 78.2756 12.0653 76.7415C12.0653 75.5672 12.2311 74.5185 12.5625 73.5952C12.8987 72.6719 13.3674 71.8883 13.9688 71.2443C14.5701 70.5956 15.2756 70.1032 16.0852 69.767C16.8949 69.4261 17.7756 69.2557 18.7273 69.2557C19.5322 69.2557 20.2827 69.3741 20.9787 69.6108C21.6747 69.8428 22.2926 70.1742 22.8324 70.6051C23.3769 71.036 23.8243 71.5473 24.1747 72.1392C24.5251 72.7311 24.7547 73.3845 24.8636 74.0994H22.179ZM40.5295 76.7273C40.5295 78.2945 40.2359 79.6368 39.6488 80.7543C39.0664 81.867 38.271 82.7192 37.2624 83.3111C36.2586 83.9029 35.1199 84.1989 33.8462 84.1989C32.5726 84.1989 31.4315 83.9029 30.4229 83.3111C29.4192 82.7145 28.6237 81.8598 28.0366 80.7472C27.4542 79.6297 27.163 78.2898 27.163 76.7273C27.163 75.16 27.4542 73.8201 28.0366 72.7074C28.6237 71.59 29.4192 70.7353 30.4229 70.1435C31.4315 69.5516 32.5726 69.2557 33.8462 69.2557C35.1199 69.2557 36.2586 69.5516 37.2624 70.1435C38.271 70.7353 39.0664 71.59 39.6488 72.7074C40.2359 73.8201 40.5295 75.16 40.5295 76.7273ZM37.8803 76.7273C37.8803 75.6241 37.7075 74.6937 37.3619 73.9361C37.021 73.1738 36.5475 72.5985 35.9414 72.2102C35.3353 71.8172 34.637 71.6207 33.8462 71.6207C33.0555 71.6207 32.3571 71.8172 31.7511 72.2102C31.145 72.5985 30.6692 73.1738 30.3235 73.9361C29.9826 74.6937 29.8121 75.6241 29.8121 76.7273C29.8121 77.8305 29.9826 78.7633 30.3235 79.5256C30.6692 80.2831 31.145 80.8584 31.7511 81.2514C32.3571 81.6397 33.0555 81.8338 33.8462 81.8338C34.637 81.8338 35.3353 81.6397 35.9414 81.2514C36.5475 80.8584 37.021 80.2831 37.3619 79.5256C37.7075 78.7633 37.8803 77.8305 37.8803 76.7273ZM56.0178 76.7273C56.0178 78.2945 55.7242 79.6368 55.1371 80.7543C54.5547 81.867 53.7592 82.7192 52.7507 83.3111C51.7469 83.9029 50.6082 84.1989 49.3345 84.1989C48.0608 84.1989 46.9197 83.9029 45.9112 83.3111C44.9074 82.7145 44.112 81.8598 43.5249 80.7472C42.9425 79.6297 42.6513 78.2898 42.6513 76.7273C42.6513 75.16 42.9425 73.8201 43.5249 72.7074C44.112 71.59 44.9074 70.7353 45.9112 70.1435C46.9197 69.5516 48.0608 69.2557 49.3345 69.2557C50.6082 69.2557 51.7469 69.5516 52.7507 70.1435C53.7592 70.7353 54.5547 71.59 55.1371 72.7074C55.7242 73.8201 56.0178 75.16 56.0178 76.7273ZM53.3686 76.7273C53.3686 75.6241 53.1958 74.6937 52.8501 73.9361C52.5092 73.1738 52.0357 72.5985 51.4297 72.2102C50.8236 71.8172 50.1252 71.6207 49.3345 71.6207C48.5438 71.6207 47.8454 71.8172 47.2393 72.2102C46.6333 72.5985 46.1574 73.1738 45.8118 73.9361C45.4709 74.6937 45.3004 75.6241 45.3004 76.7273C45.3004 77.8305 45.4709 78.7633 45.8118 79.5256C46.1574 80.2831 46.6333 80.8584 47.2393 81.2514C47.8454 81.6397 48.5438 81.8338 49.3345 81.8338C50.1252 81.8338 50.8236 81.6397 51.4297 81.2514C52.0357 80.8584 52.5092 80.2831 52.8501 79.5256C53.1958 78.7633 53.3686 77.8305 53.3686 76.7273ZM63.4379 84H58.5089V69.4545H63.5373C64.9814 69.4545 66.2219 69.7457 67.2589 70.3281C68.3005 70.9058 69.1007 71.7367 69.6594 72.821C70.2182 73.9053 70.4975 75.2027 70.4975 76.7131C70.4975 78.2282 70.2158 79.5303 69.6523 80.6193C69.0936 81.7083 68.2863 82.544 67.2305 83.1264C66.1793 83.7088 64.9151 84 63.4379 84ZM61.1438 81.7202H63.31C64.3233 81.7202 65.1684 81.5355 65.8455 81.1662C66.5226 80.7921 67.0316 80.2358 67.3725 79.4972C67.7134 78.7538 67.8839 77.8258 67.8839 76.7131C67.8839 75.6004 67.7134 74.6771 67.3725 73.9432C67.0316 73.2045 66.5273 72.6529 65.8597 72.2884C65.1969 71.919 64.373 71.7344 63.3881 71.7344H61.1438V81.7202ZM83.7006 69.4545H86.3143V79.6818C86.3095 80.6193 86.1107 81.4266 85.7177 82.1037C85.3247 82.776 84.7754 83.2945 84.07 83.6591C83.3692 84.0189 82.5524 84.1989 81.6197 84.1989C80.7674 84.1989 80.0004 84.0473 79.3185 83.7443C78.6415 83.4366 78.104 82.982 77.7063 82.3807C77.3086 81.7794 77.1097 81.0312 77.1097 80.1364H79.7305C79.7352 80.5294 79.8204 80.8679 79.9862 81.152C80.1566 81.4361 80.391 81.6539 80.6893 81.8054C80.9876 81.9569 81.3308 82.0327 81.7191 82.0327C82.1405 82.0327 82.498 81.9451 82.7915 81.7699C83.0851 81.59 83.3076 81.3248 83.4592 80.9744C83.6154 80.6241 83.6959 80.1932 83.7006 79.6818V69.4545ZM102.17 76.7273C102.17 78.2945 101.877 79.6368 101.289 80.7543C100.707 81.867 99.9116 82.7192 98.9031 83.3111C97.8993 83.9029 96.7605 84.1989 95.4869 84.1989C94.2132 84.1989 93.0721 83.9029 92.0636 83.3111C91.0598 82.7145 90.2643 81.8598 89.6772 80.7472C89.0948 79.6297 88.8036 78.2898 88.8036 76.7273C88.8036 75.16 89.0948 73.8201 89.6772 72.7074C90.2643 71.59 91.0598 70.7353 92.0636 70.1435C93.0721 69.5516 94.2132 69.2557 95.4869 69.2557C96.7605 69.2557 97.8993 69.5516 98.9031 70.1435C99.9116 70.7353 100.707 71.59 101.289 72.7074C101.877 73.8201 102.17 75.16 102.17 76.7273ZM99.521 76.7273C99.521 75.6241 99.3481 74.6937 99.0025 73.9361C98.6616 73.1738 98.1881 72.5985 97.582 72.2102C96.976 71.8172 96.2776 71.6207 95.4869 71.6207C94.6961 71.6207 93.9978 71.8172 93.3917 72.2102C92.7856 72.5985 92.3098 73.1738 91.9641 73.9361C91.6232 74.6937 91.4528 75.6241 91.4528 76.7273C91.4528 77.8305 91.6232 78.7633 91.9641 79.5256C92.3098 80.2831 92.7856 80.8584 93.3917 81.2514C93.9978 81.6397 94.6961 81.8338 95.4869 81.8338C96.2776 81.8338 96.976 81.6397 97.582 81.2514C98.1881 80.8584 98.6616 80.2831 99.0025 79.5256C99.3481 78.7633 99.521 77.8305 99.521 76.7273ZM104.661 84V69.4545H110.229C111.281 69.4545 112.154 69.6203 112.85 69.9517C113.551 70.2784 114.074 70.7259 114.42 71.294C114.77 71.8622 114.945 72.5062 114.945 73.2259C114.945 73.8177 114.832 74.3243 114.604 74.7457C114.377 75.1624 114.072 75.5009 113.688 75.7614C113.305 76.0218 112.876 76.2088 112.403 76.3224V76.4645C112.919 76.4929 113.414 76.6515 113.887 76.9403C114.365 77.2244 114.756 77.6269 115.059 78.1477C115.362 78.6686 115.513 79.2983 115.513 80.0369C115.513 80.7898 115.331 81.4669 114.967 82.0682C114.602 82.6648 114.053 83.1359 113.319 83.4815C112.585 83.8272 111.662 84 110.549 84H104.661ZM107.296 81.7983H110.13C111.086 81.7983 111.775 81.616 112.197 81.2514C112.623 80.8821 112.836 80.4086 112.836 79.831C112.836 79.4001 112.729 79.0118 112.516 78.6662C112.303 78.3158 112 78.0412 111.607 77.8423C111.214 77.6387 110.746 77.5369 110.201 77.5369H107.296V81.7983ZM107.296 75.6406H109.903C110.357 75.6406 110.767 75.5578 111.131 75.392C111.496 75.2216 111.782 74.9825 111.991 74.6747C112.204 74.3622 112.31 73.9929 112.31 73.5668C112.31 73.0033 112.112 72.5393 111.714 72.1747C111.321 71.8101 110.736 71.6278 109.96 71.6278H107.296V75.6406Z" fill="white"/>
<defs>
<linearGradient id="paint0_linear_491_1590" x1="0" y1="71.5" x2="128" y2="71.5" gradientUnits="userSpaceOnUse">
<stop stop-color="#BBFFFF"/>
<stop offset="0.35" stop-color="#75C3F6"/>
<stop offset="1" stop-color="#1643E3"/>
</linearGradient>
</defs>
</svg>
