<svg width="20" height="20" viewBox="0 0 20 20" fill="none" xmlns="http://www.w3.org/2000/svg">
<g clip-path="url(#clip0_432_1264)">
<path d="M10.0004 20.0008C15.5235 20.0008 20.0008 15.5235 20.0008 10.0004C20.0008 4.47733 15.5235 0 10.0004 0C4.47733 0 0 4.47733 0 10.0004C0 15.5235 4.47733 20.0008 10.0004 20.0008Z" fill="#616161"/>
<path d="M10.0004 16.3641C6.48535 16.3641 3.63673 13.5155 3.63673 10.0004C3.63673 6.48535 6.48535 3.63673 10.0004 3.63673C11.7571 3.63673 13.3478 4.34909 14.5002 5.50062L17.0716 2.92921C15.2617 1.1193 12.7612 0 10.0004 0C4.47721 0 0 4.47722 0 10.0004C0 15.5236 4.47721 20.0008 10.0004 20.0008C12.762 20.0008 15.2617 18.8815 17.0724 17.0724L14.501 14.501C13.3478 15.6517 11.7571 16.3641 10.0004 16.3641Z" fill="#9E9E9E"/>
<path d="M16.3641 10.0004H13.1819C13.1819 8.24364 11.7571 6.81812 9.99961 6.81812C8.24209 6.81812 6.81818 8.24283 6.81818 10.0004C6.81818 10.8562 7.15663 11.6322 7.70701 12.2051L7.70459 12.2075L11.6443 16.1473L11.6451 16.1481C14.3624 15.4228 16.3641 12.9457 16.3641 10.0004Z" fill="#424242"/>
<path d="M20 10.0005H16.3633C16.3633 12.9458 14.3608 15.4229 11.6451 16.1482L14.4535 18.9565C17.7413 17.3183 20 13.9233 20 10.0005Z" fill="#616161"/>
<path d="M10.0004 19.8863C4.49656 19.8863 0.0322334 15.4397 0.000805837 9.94312C0.000805837 9.96246 0 9.98099 0 10.0003C0 15.5235 4.47722 20.0007 10.0004 20.0007C15.5236 20.0007 20.0008 15.5235 20.0008 10.0003C20.0008 9.98099 20 9.96246 20 9.94312C19.9686 15.4397 15.5034 19.8863 10.0004 19.8863Z" fill="#212121" fill-opacity="0.1"/>
<path d="M11.6459 16.1482L11.7346 16.2368C14.4051 15.4826 16.3641 13.028 16.3641 10.1141V10.0005C16.3641 12.9458 14.3616 15.4229 11.6459 16.1482Z" fill="white" fill-opacity="0.05"/>
<path d="M18.1825 9.09106H10C9.49801 9.09106 9.09106 9.49801 9.09106 10C9.09106 10.5021 9.49801 10.909 10 10.909H18.1817C18.6837 10.909 19.0907 10.5021 19.0907 10C19.0915 9.49801 18.6845 9.09106 18.1825 9.09106Z" fill="#9E9E9E"/>
<path opacity="0.5" d="M18.1825 9.09106H10C9.49801 9.09106 9.09106 9.49801 9.09106 10C9.09106 10.5021 9.49801 10.909 10 10.909H18.1817C18.6837 10.909 19.0907 10.5021 19.0907 10C19.0915 9.49801 18.6845 9.09106 18.1825 9.09106Z" fill="#BDBDBD"/>
<path d="M1.81797 10.6821C2.19448 10.6821 2.4997 10.3769 2.4997 10.0003C2.4997 9.62383 2.19448 9.3186 1.81797 9.3186C1.44145 9.3186 1.13623 9.62383 1.13623 10.0003C1.13623 10.3769 1.44145 10.6821 1.81797 10.6821Z" fill="#BDBDBD"/>
<path d="M10.0004 2.4997C10.3769 2.4997 10.6821 2.19448 10.6821 1.81797C10.6821 1.44145 10.3769 1.13623 10.0004 1.13623C9.62389 1.13623 9.31866 1.44145 9.31866 1.81797C9.31866 2.19448 9.62389 2.4997 10.0004 2.4997Z" fill="#BDBDBD"/>
<path d="M10.0004 18.8637C10.3769 18.8637 10.6821 18.5585 10.6821 18.182C10.6821 17.8055 10.3769 17.5002 10.0004 17.5002C9.62389 17.5002 9.31866 17.8055 9.31866 18.182C9.31866 18.5585 9.62389 18.8637 10.0004 18.8637Z" fill="#BDBDBD"/>
<path d="M4.20487 4.89619C4.58138 4.89619 4.8866 4.59096 4.8866 4.21445C4.8866 3.83794 4.58138 3.53271 4.20487 3.53271C3.82836 3.53271 3.52313 3.83794 3.52313 4.21445C3.52313 4.59096 3.82836 4.89619 4.20487 4.89619Z" fill="#BDBDBD"/>
<path d="M4.20487 16.4777C4.58138 16.4777 4.8866 16.1725 4.8866 15.796C4.8866 15.4195 4.58138 15.1143 4.20487 15.1143C3.82836 15.1143 3.52313 15.4195 3.52313 15.796C3.52313 16.1725 3.82836 16.4777 4.20487 16.4777Z" fill="#BDBDBD"/>
<path d="M15.796 16.4777C16.1725 16.4777 16.4777 16.1725 16.4777 15.796C16.4777 15.4195 16.1725 15.1143 15.796 15.1143C15.4195 15.1143 15.1143 15.4195 15.1143 15.796C15.1143 16.1725 15.4195 16.4777 15.796 16.4777Z" fill="#757575"/>
<path d="M10.0004 9.20493H18.182C18.6647 9.20493 19.0596 9.58206 19.0878 10.0575C19.0886 10.0382 19.091 10.0196 19.091 10.0003C19.091 9.49826 18.6841 9.09131 18.182 9.09131H10.0004C9.49838 9.09131 9.09143 9.49826 9.09143 10.0003C9.09143 10.0196 9.09224 10.0382 9.09465 10.0575C9.12286 9.58206 9.51691 9.20493 10.0004 9.20493Z" fill="white" fill-opacity="0.2"/>
<path d="M19.0878 10.0569C19.058 10.5315 18.6639 10.9095 18.182 10.9095H10.0004C9.51772 10.9095 9.12286 10.5323 9.09465 10.0569C9.09224 10.0762 9.09143 10.0948 9.09143 10.1133C9.09143 10.6153 9.49838 11.0223 10.0004 11.0223H18.182C18.6841 11.0223 19.091 10.6153 19.091 10.1133C19.091 10.0948 19.0902 10.0762 19.0878 10.0569Z" fill="#212121" fill-opacity="0.2"/>
<path d="M10.0004 3.75042C11.7571 3.75042 13.3478 4.46278 14.5002 5.61431L17.1272 2.98568C17.1078 2.96634 17.0893 2.947 17.0708 2.92847L14.5002 5.49988C13.3478 4.34835 11.7571 3.63599 10.0004 3.63599C6.48534 3.63599 3.63672 6.48461 3.63672 9.99966C3.63672 10.019 3.63752 10.0375 3.63752 10.0569C3.66815 6.56842 6.50468 3.75042 10.0004 3.75042Z" fill="#212121" fill-opacity="0.1"/>
<path d="M10.0004 20.0008C15.5235 20.0008 20.0008 15.5235 20.0008 10.0004C20.0008 4.47733 15.5235 0 10.0004 0C4.47733 0 0 4.47733 0 10.0004C0 15.5235 4.47733 20.0008 10.0004 20.0008Z" fill="url(#paint0_radial_432_1264)"/>
</g>
<defs>
<radialGradient id="paint0_radial_432_1264" cx="0" cy="0" r="1" gradientUnits="userSpaceOnUse" gradientTransform="translate(2.93268 2.90991) scale(19.9663)">
<stop stop-color="white" stop-opacity="0.1"/>
<stop offset="1" stop-color="white" stop-opacity="0"/>
</radialGradient>
<clipPath id="clip0_432_1264">
<rect width="20" height="20" fill="white"/>
</clipPath>
</defs>
</svg>
