<svg width="20" height="20" viewBox="0 0 20 20" fill="none" xmlns="http://www.w3.org/2000/svg">
<path d="M15.5838 8.125H14.8438V6.05937C14.8438 3.4075 12.6709 1.25 10 1.25C7.32907 1.25 5.15626 3.4075 5.15626 6.05937V8.125H4.41626C3.46845 8.125 2.69751 8.89594 2.69751 9.84375V17.0312C2.69751 17.9788 3.46845 18.75 4.41626 18.75H15.5838C16.5313 18.75 17.3025 17.9788 17.3025 17.0312V9.84375C17.3025 8.89594 16.5313 8.125 15.5838 8.125ZM6.09376 6.05937C6.09376 3.92437 7.84626 2.1875 10 2.1875C12.1538 2.1875 13.9063 3.92437 13.9063 6.05937V8.125H6.09376V6.05937ZM16.365 17.0312C16.365 17.4622 16.0147 17.8125 15.5838 17.8125H4.41626C3.98563 17.8125 3.63501 17.4622 3.63501 17.0312V9.84375C3.63501 9.41313 3.98563 9.0625 4.41626 9.0625H15.5838C16.0147 9.0625 16.365 9.41313 16.365 9.84375V17.0312Z" fill="#AEAEAE"/>
<path d="M14.375 10.3125C14.1162 10.3125 13.9062 10.5225 13.9062 10.7812V16.0938C13.9062 16.3525 14.1162 16.5625 14.375 16.5625C14.6338 16.5625 14.8438 16.3525 14.8438 16.0938V10.7812C14.8438 10.5225 14.6338 10.3125 14.375 10.3125Z" fill="#AEAEAE"/>
</svg>
