<svg width="155" height="40" viewBox="0 0 155 40" fill="none" xmlns="http://www.w3.org/2000/svg">
<path d="M0 29.1827V37.9208L1.89945 39.4546L2.04508 39.3369L7.31582 35.0825L0.00310164 29.1827H0ZM1.06282 31.4044L5.62089 35.0825L1.89635 38.085L1.05972 37.4095V31.4013L1.06282 31.4044Z" fill="white"/>
<path d="M8.3291 35.3583L7.99134 35.631L2.57495 40H13.4046L13.7424 39.7273L14.0832 39.4547L25.0461 30.605V21.8701L8.66679 35.0856L8.3291 35.3583ZM23.9833 24.0918V30.0968L13.417 38.6242L13.0761 38.8969L13.0296 38.9341H5.58679L8.66061 36.4552L8.99837 36.1825L9.33304 35.9099L23.9833 24.0918Z" fill="white"/>
<path d="M2.04199 28.405L7.31273 24.1506L0 18.2509V26.9889L1.89945 28.5196L2.04199 28.405ZM1.06282 26.4808V20.4756L5.62089 24.1537L1.89945 27.1562L1.06282 26.4808Z" fill="white"/>
<path d="M8.3291 24.4264L7.98819 24.699L2.57495 29.0681H13.4046L13.7424 28.7954L14.0801 28.5227L25.0461 19.6762V10.9412L8.66679 24.1568L8.3291 24.4295V24.4264ZM23.9833 13.1598V19.1649L13.4108 27.6954L13.0761 27.9681L13.0296 28.0053H5.58371L8.65134 25.5295L8.99528 25.2537L9.32995 24.981L23.9802 13.1629L23.9833 13.1598Z" fill="white"/>
<path d="M2.04199 17.4699L7.31273 13.2187L0 7.31891V16.0539L1.89945 17.5877L2.04508 17.4699H2.04199ZM1.06282 9.54061L5.62089 13.2187L1.89945 16.2212L1.06282 15.5457V9.54061Z" fill="white"/>
<path d="M8.66679 13.2156L8.3291 13.4882L7.98819 13.7609L2.57495 18.13H13.4046L13.7424 17.8573L14.0832 17.5846L25.0461 8.73812V0L8.66679 13.2156ZM23.9833 8.22994L13.417 16.7573L13.0761 17.03L13.0296 17.0672H5.58371L8.65443 14.5883L8.99528 14.3125L9.32995 14.0398L23.9802 2.2217V8.22994H23.9833Z" fill="white"/>
<path d="M41.1571 21.3139V24.6012L38.3062 21.7212V9.99758V9.96849H50.2335L51.2808 12.8194H41.1571V18.463H44.968V21.3139H41.1571ZM44.0371 27.4812H50.2335L51.2808 30.3321H38.3062V24.6012L41.1571 27.4521V27.4812H41.1862H44.0371ZM61.7526 10.0267H66.6108V12.9067H64.6326L61.7526 10.0267ZM54.1016 10.0267H58.9017L61.7817 12.9067V30.3612H58.9308V12.9067H54.1016V10.0267ZM72.2934 21.3139V24.6012L69.4425 21.7212V9.99758V9.96849H81.3698L82.4171 12.8194H72.2934V18.463H76.1043V21.3139H72.2934ZM75.1734 27.4812H81.3698L82.4171 30.3321H69.4425V24.6012L72.2934 27.4521V27.4812H72.3225H75.1734ZM85.2383 30.1867V12.703L88.0892 15.583V30.1867H85.2383ZM93.4419 21.4885L98.5328 30.2739H94.6928L89.8928 21.9539H88.9619V18.9285H90.8819C93.0346 18.9285 94.7801 17.5903 94.7801 15.9321C94.7801 14.2739 93.0346 12.9358 90.8819 12.9358H88.2928L85.2383 9.85213H88.0892V9.88122L90.7656 9.85213C94.6928 9.85213 97.6019 12.3539 97.6019 15.6703C97.6019 18.2012 95.9728 20.4994 93.4419 21.4885ZM101.346 30.3321V22.8558L104.197 25.7067V30.3321H101.346ZM112.663 9.99758H115.513V30.303H111.819L104.197 17.0958V22.8558L101.346 19.9758V9.99758H103.79H103.819V10.0267L104.168 10.6667L112.663 25.3576V9.99758ZM128.487 9.99758C134.102 9.99758 138.64 14.5358 138.64 20.1503C138.64 22.7394 137.68 25.0958 136.08 26.8994L133.869 24.6885C134.887 23.4667 135.527 21.8667 135.527 20.1503C135.527 16.2521 132.386 13.1103 128.487 13.1103C126.771 13.1103 125.171 13.7503 123.949 14.7685L121.738 12.5576C123.542 10.9576 125.898 9.99758 128.487 9.99758ZM128.487 27.1903C129.913 27.1903 131.251 26.7539 132.356 26.0267L134.596 28.2667C132.88 29.5467 130.786 30.303 128.487 30.303C122.873 30.303 118.335 25.7649 118.335 20.1503C118.335 17.8521 119.091 15.7576 120.371 14.0412L122.611 16.2812C121.884 17.3867 121.447 18.7249 121.447 20.1503C121.447 24.0485 124.589 27.1903 128.487 27.1903ZM147.336 12.8485C146.376 12.8485 145.532 13.3139 145.009 14.0412L142.856 11.8885C143.932 10.6085 145.532 9.79395 147.336 9.79395C150.565 9.79395 153.212 12.4412 153.212 15.6994H150.187C150.187 14.1285 148.907 12.8485 147.336 12.8485ZM151.263 20.063C152.456 21.1394 153.212 22.6812 153.212 24.4267C153.212 27.6849 150.565 30.303 147.336 30.303C144.078 30.303 141.459 27.6849 141.459 24.4267H144.485C144.485 25.9976 145.765 27.2776 147.336 27.2776C148.907 27.2776 150.187 25.9976 150.187 24.4267C150.187 22.8558 148.907 21.5758 147.336 21.5758C145.823 21.5758 144.427 20.9939 143.38 20.063C142.187 18.9867 141.459 17.4158 141.459 15.6994C141.459 14.9721 141.576 14.303 141.809 13.6921L144.601 16.4849C144.95 17.6776 146.027 18.5503 147.336 18.5503C148.849 18.5503 150.216 19.103 151.263 20.063Z" fill="white"/>
<path d="M24.2424 1.81818V8.18181L13.3333 17.2727H5.15152L24.2424 1.81818Z" fill="white"/>
<path d="M24.2424 12.4243V19.394L13.0303 28.1818H4.84848L24.2424 12.4243Z" fill="white"/>
<path d="M24.2424 23.6364V30.606L13.0303 39.3939H4.84848L24.2424 23.6364Z" fill="white"/>
</svg>
