<svg width="35" height="35" viewBox="0 0 35 35" fill="none" xmlns="http://www.w3.org/2000/svg">
<g clip-path="url(#clip0_427_768)">
<path d="M27.217 21.543C27.217 22.752 27.217 23.962 27.217 25.171C18.145 25.256 9.072 33.186 0 27.326C0 22.457 0 17.589 0 12.72C1.971 13.994 3.943 14.616 5.916 14.809C5.916 15.757 5.916 16.706 5.916 17.656C5.188 19.126 3.668 20.127 1.801 19.681C1.801 20.643 1.801 21.605 1.801 22.567C4.09 23.997 5.912 25.611 6.463 27.655C11.285 27.936 16.106 25.775 20.927 24.417C21.093 23.706 21.403 23.003 21.819 22.352C23.618 21.885 25.416 21.561 27.217 21.543ZM34.696 7.67299C34.696 12.542 34.696 17.41 34.696 22.279C25.624 16.421 16.551 24.349 7.479 24.434C7.479 19.565 7.479 14.695 7.479 9.82799C16.551 9.74299 25.623 1.81499 34.696 7.67299ZM32.895 15.464C32.895 14.508 32.895 13.552 32.895 12.597C30.522 11.135 28.643 9.47099 28.139 7.33899C23.344 7.08999 18.547 9.23699 13.752 10.586C13.313 12.745 11.551 14.93 9.281 15.686C9.281 16.648 9.281 17.611 9.281 18.572C11.57 18.697 13.391 19.681 13.943 21.533C18.763 20.156 23.586 18.016 28.408 18.357C28.905 16.417 30.659 14.917 32.895 15.464ZM20.455 18.189C19.342 18.322 18.779 17.767 18.779 16.608C18.779 16.413 18.779 16.218 18.779 16.025C19.265 15.87 19.756 15.718 20.242 15.575C20.242 15.798 20.242 16.021 20.242 16.244C20.242 16.852 20.553 16.978 21.047 16.841C21.537 16.704 21.848 16.406 21.848 15.798C21.848 14.017 18.824 14.823 18.824 12.412C18.824 11.27 19.373 10.36 20.457 9.83399C20.457 9.69699 20.457 9.56099 20.457 9.42299C18.483 10.352 16.976 12.786 16.976 15.098C16.976 17.423 18.486 18.829 20.457 18.588C20.455 18.455 20.455 18.322 20.455 18.189ZM21.721 9.07199C21.721 9.20899 21.721 9.34599 21.721 9.48399C22.82 9.39299 23.383 10.021 23.383 11.172C23.383 11.262 23.383 11.352 23.383 11.441C22.895 11.541 22.406 11.655 21.918 11.78C21.918 11.662 21.918 11.545 21.918 11.426C21.918 10.82 21.637 10.657 21.145 10.793C20.654 10.931 20.373 11.246 20.373 11.854C20.373 13.57 23.397 12.876 23.397 15.353C23.397 16.511 22.82 17.358 21.721 17.837C21.721 17.97 21.721 18.105 21.721 18.236C23.695 17.366 25.203 15.278 25.203 12.96C25.203 10.643 23.694 8.88799 21.721 9.07199Z" fill="white"/>
</g>
<defs>
<clipPath id="clip0_427_768">
<rect width="34.696" height="34.696" fill="white" transform="translate(0 0.151978)"/>
</clipPath>
</defs>
</svg>
