<svg width="30" height="24" viewBox="0 0 30 24" fill="none" xmlns="http://www.w3.org/2000/svg">
<path d="M29.4281 23.2329L22.6951 16.2308C24.4125 14.5085 25.4764 12.1341 25.4764 9.51554C25.4764 4.2684 21.208 0 15.9609 0C10.7137 0 6.44531 4.2684 6.44531 9.51554C6.44531 14.7627 10.7137 19.0311 15.9609 19.0311C18.2641 19.0311 20.3779 18.2078 22.0254 16.8416L28.7747 23.8609C28.8635 23.9538 28.9822 24 29.1014 24C29.2146 24 29.3275 23.9579 29.4154 23.8736C29.5957 23.7 29.6011 23.4132 29.4281 23.2329ZM15.9609 18.1248C11.2135 18.1248 7.35155 14.2629 7.35155 9.51554C7.35155 4.76819 11.2135 0.906242 15.9609 0.906242C20.7082 0.906242 24.5701 4.76819 24.5701 9.51554C24.5701 14.2629 20.7077 18.1248 15.9609 18.1248Z" fill="white"/>
</svg>
