<svg width="30" height="30" viewBox="0 0 30 30" fill="none" xmlns="http://www.w3.org/2000/svg">
<path d="M18.2344 20.6015C18.2344 20.4974 18.1978 20.3932 18.125 20.2891C17.5416 19.5909 17.073 18.9919 16.7187 18.4923C16.9374 18.0652 17.1041 17.6693 17.2184 17.3051L19.6403 16.9301C19.7344 16.9195 19.8177 16.8649 19.8905 16.7662C19.9634 16.6668 19.9995 16.5655 19.9995 16.4613V13.5705C19.9995 13.4561 19.9634 13.3544 19.8905 13.266C19.8177 13.1776 19.7291 13.1227 19.625 13.1022L17.2498 12.7428C17.135 12.3886 16.958 11.9613 16.7185 11.4615C16.8745 11.2322 17.1092 10.9196 17.4217 10.524C17.7342 10.1281 17.9533 9.84693 18.078 9.68023C18.151 9.57609 18.1874 9.47703 18.1874 9.38339C18.1874 9.10209 17.4373 8.26876 15.9377 6.88328C15.8336 6.8001 15.7242 6.75845 15.6092 6.75845C15.4845 6.75845 15.3804 6.79451 15.2966 6.86774L13.4528 8.25836C13.0259 8.03967 12.6352 7.87828 12.281 7.7738L11.9216 5.38331C11.9114 5.27917 11.8593 5.18788 11.7655 5.10984C11.6717 5.03175 11.5676 4.99261 11.4528 4.99261H8.54683C8.30728 4.99261 8.15104 5.11761 8.07814 5.36755C7.95303 5.8468 7.83334 6.64905 7.71875 7.7738C7.27091 7.9196 6.86987 8.0863 6.51573 8.27379L4.71892 6.86768C4.61477 6.79462 4.50543 6.75839 4.39078 6.75839C4.19261 6.75839 3.78122 7.06563 3.15629 7.68033C2.53125 8.29481 2.10394 8.75835 1.87496 9.0709C1.80195 9.15436 1.76567 9.2585 1.76567 9.3835C1.76567 9.47714 1.8019 9.58128 1.87496 9.69588C2.45819 10.394 2.92687 10.9929 3.28112 11.4927C3.06243 11.92 2.89584 12.3156 2.78135 12.6802L0.359394 13.0549C0.265537 13.0653 0.182297 13.12 0.109291 13.2187C0.0364484 13.3179 0 13.4193 0 13.5234V16.414C0 16.5287 0.0364484 16.6302 0.109291 16.7186C0.182297 16.8073 0.270736 16.8567 0.375101 16.8671L2.75005 17.2421C2.87505 17.6378 3.05751 18.065 3.29705 18.5233C3.13035 18.7527 2.88566 19.0705 2.56272 19.4765C2.23955 19.883 2.02612 20.159 1.92202 20.3047C1.84913 20.4089 1.81262 20.5081 1.81262 20.6014C1.81262 20.8831 2.56272 21.7161 4.06269 23.1017C4.16683 23.1849 4.27607 23.2262 4.39083 23.2262C4.52623 23.2262 4.63037 23.1901 4.70321 23.1171L6.54692 21.7267C6.97385 21.9454 7.3645 22.1066 7.7188 22.2108L8.07819 24.6015C8.08848 24.7056 8.14069 24.797 8.23433 24.875C8.32808 24.953 8.43223 24.992 8.54688 24.992H11.4529C11.6926 24.992 11.8487 24.8671 11.9217 24.6171C12.0467 24.1273 12.1664 23.3201 12.2811 22.1951C12.6976 22.0706 13.0986 21.9086 13.4841 21.7109L15.281 23.1171C15.3851 23.1901 15.4945 23.2262 15.6091 23.2262C15.8071 23.2262 16.2161 22.9165 16.8358 22.2964C17.4553 21.677 17.8852 21.2105 18.1249 20.8981C18.1978 20.8254 18.2344 20.7266 18.2344 20.6015ZM12.8279 17.8207C12.0469 18.6016 11.1041 18.9923 10 18.9923C8.89566 18.9923 7.95287 18.6016 7.1718 17.8207C6.39062 17.0393 5.99998 16.0965 5.99998 14.9923C5.99998 13.8883 6.39062 12.9455 7.1718 12.1643C7.95287 11.3831 8.89571 10.9925 10 10.9925C11.1041 10.9925 12.0469 11.383 12.8279 12.1643C13.6093 12.9455 13.9998 13.8883 13.9998 14.9923C13.9998 16.0965 13.6093 17.0393 12.8279 17.8207Z" fill="white"/>
<path d="M27.6717 21.4142C27.5365 21.1123 27.3801 20.8415 27.2031 20.6018C27.7345 19.4245 27.9998 18.7057 27.9998 18.4454C27.9998 18.4042 27.9794 18.3675 27.9375 18.3362C26.6872 17.6071 26.0415 17.2425 25.9998 17.2425L25.9062 17.2739C25.4792 17.7012 24.9997 18.2843 24.4687 19.0239C24.2605 19.0032 24.1045 18.9925 24.0003 18.9925C23.8958 18.9925 23.7398 19.0032 23.5314 19.0239C23.3861 18.805 23.1149 18.4533 22.7191 17.9692C22.3234 17.485 22.0837 17.2425 22.0003 17.2425C21.9795 17.2425 21.8233 17.3258 21.5315 17.4929C21.2399 17.6596 20.9326 17.8364 20.6097 18.0243C20.2865 18.2122 20.1046 18.3159 20.0629 18.3368C20.0209 18.3679 20.0002 18.4046 20.0002 18.4458C20.0002 18.7066 20.2658 19.4248 20.797 20.6022C20.6202 20.842 20.4638 21.1128 20.3284 21.4145C18.7762 21.5705 18.0001 21.7322 18.0001 21.8988V24.0861C18.0001 24.2528 18.7762 24.4143 20.3284 24.5705C20.4532 24.8518 20.6096 25.1226 20.797 25.3826C20.2658 26.5599 20.0002 27.2787 20.0002 27.5389C20.0002 27.5805 20.0209 27.6173 20.0629 27.6483C21.3334 28.3879 21.9795 28.7577 22.0003 28.7577C22.0836 28.7577 22.3234 28.5129 22.7191 28.0233C23.1148 27.5336 23.3857 27.1798 23.5314 26.961C23.7397 26.9814 23.8958 26.9919 24.0003 26.9919C24.1044 26.9919 24.2605 26.9814 24.4687 26.961C24.6143 27.1798 24.8853 27.5336 25.281 28.0233C25.6767 28.5129 25.9163 28.7577 25.9998 28.7577C26.0206 28.7577 26.6668 28.3878 27.9375 27.6483C27.9794 27.6173 27.9998 27.5808 27.9998 27.5389C27.9998 27.2786 27.7341 26.5598 27.2031 25.3826C27.3906 25.1226 27.5468 24.8518 27.6717 24.5705C29.2239 24.4143 30 24.2528 30 24.0861V21.8988C30 21.7321 29.2239 21.5704 27.6717 21.4142ZM25.4138 24.4063C25.0237 24.797 24.5521 24.9927 23.9999 24.9927C23.4476 24.9927 22.9763 24.797 22.5859 24.4063C22.1952 24.0156 21.9997 23.5445 21.9997 22.9923C21.9997 22.4508 22.1979 21.9817 22.5938 21.5862C22.9895 21.1905 23.4583 20.9925 23.9999 20.9925C24.5414 20.9925 25.0105 21.1902 25.4064 21.5862C25.8019 21.9818 26.0001 22.4509 26.0001 22.9923C25.9998 23.5445 25.8046 24.0156 25.4138 24.4063Z" fill="white"/>
<path d="M27.6717 5.41424C27.5365 5.11215 27.3801 4.84136 27.2031 4.6016C27.7345 3.42468 27.9998 2.7059 27.9998 2.4455C27.9998 2.40402 27.9794 2.36741 27.9375 2.3361C26.6872 1.60697 26.0415 1.24243 25.9998 1.24243L25.9062 1.27363C25.4792 1.70094 24.9997 2.28411 24.4687 3.02364C24.2605 3.00296 24.1045 2.99245 24.0003 2.99245C23.8958 2.99245 23.7398 3.00296 23.5314 3.02364C23.3861 2.8049 23.1149 2.45338 22.7191 1.96905C22.3234 1.4846 22.0837 1.24249 22.0003 1.24249C21.9795 1.24249 21.8233 1.32573 21.5315 1.49254C21.2399 1.6594 20.9326 1.83639 20.6097 2.02394C20.2865 2.21154 20.1046 2.31563 20.0629 2.33632C20.0209 2.36757 20.0002 2.40402 20.0002 2.44572C20.0002 2.70611 20.2658 3.42496 20.797 4.60192C20.6202 4.84163 20.4638 5.11237 20.3284 5.41446C18.7762 5.5706 18.0001 5.73199 18.0001 5.89869V8.0862C18.0001 8.25279 18.7762 8.41434 20.3284 8.57042C20.4532 8.85156 20.6096 9.12251 20.797 9.38296C20.2658 10.5601 20.0002 11.2787 20.0002 11.5392C20.0002 11.5806 20.0209 11.6172 20.0629 11.6485C21.3334 12.388 21.9795 12.7578 22.0003 12.7578C22.0836 12.7578 22.3234 12.5131 22.7191 12.0234C23.1148 11.5338 23.3857 11.1798 23.5314 10.961C23.7397 10.9817 23.8958 10.9922 24.0003 10.9922C24.1044 10.9922 24.2605 10.9817 24.4687 10.961C24.6143 11.1798 24.8853 11.5337 25.281 12.0234C25.6767 12.5131 25.9163 12.7578 25.9998 12.7578C26.0206 12.7578 26.6668 12.388 27.9375 11.6485C27.9794 11.6172 27.9998 11.5808 27.9998 11.5392C27.9998 11.2787 27.7341 10.5601 27.2031 9.38296C27.3906 9.12251 27.5468 8.85172 27.6717 8.57042C29.2239 8.41429 30 8.25279 30 8.0862V5.89869C30 5.73199 29.2239 5.57054 27.6717 5.41424ZM25.4138 8.40641C25.0237 8.7971 24.5521 8.99243 23.9999 8.99243C23.4476 8.99243 22.9763 8.7971 22.5859 8.40641C22.1952 8.01593 21.9997 7.5445 21.9997 6.99241C21.9997 6.45078 22.1979 5.98193 22.5938 5.58609C22.9895 5.19024 23.4583 4.99229 23.9999 4.99229C24.5414 4.99229 25.0105 5.19046 25.4064 5.58609C25.8019 5.98187 26.0001 6.45078 26.0001 6.99241C25.9998 7.5445 25.8046 8.01593 25.4138 8.40641Z" fill="white"/>
</svg>
