<svg width="30" height="30" viewBox="0 0 30 30" fill="none" xmlns="http://www.w3.org/2000/svg">
<g clip-path="url(#clip0_427_758)">
<path d="M9.09021 22.2175L7.6709 23.4741C8.12283 23.9826 8.61379 24.4549 9.13941 24.8868L10.3392 23.4202C9.8917 23.053 9.47407 22.6508 9.09021 22.2175Z" fill="white"/>
<path d="M7.22521 19.29L5.48608 20.0365C5.75498 20.6632 6.07427 21.2669 6.44081 21.8419L8.03706 20.8276C7.72575 20.3375 7.45425 19.8234 7.22521 19.29Z" fill="white"/>
<path d="M23.6312 3.9482C21.6856 2.82015 19.4766 2.22575 17.2276 2.22516C10.8309 2.23545 5.42673 6.97257 4.57869 13.3128L1.33794 10.072L0 11.41L5.4 16.81L10.8 11.41L9.46206 10.072L6.53545 12.9949C7.64742 7.0954 13.3313 3.21442 19.2308 4.32639C25.1303 5.43836 29.0113 11.1223 27.8993 17.0217C26.7873 22.9211 21.1034 26.8022 15.2039 25.6902C13.9946 25.4623 12.8328 25.0306 11.768 24.4136L10.817 26.0496C16.9202 29.5881 24.7363 27.5091 28.2748 21.4059C31.8134 15.3029 29.7344 7.48672 23.6312 3.9482Z" fill="white"/>
<path d="M15.8082 6.48309V16.8914L19.9715 20.0138L21.107 18.4999L17.7006 15.9452V6.48309H15.8082Z" fill="white"/>
</g>
<defs>
<clipPath id="clip0_427_758">
<rect width="30" height="30" fill="white"/>
</clipPath>
</defs>
</svg>
