<svg width="20" height="20" viewBox="0 0 20 20" fill="none" xmlns="http://www.w3.org/2000/svg">
<path d="M10 8.75C10.8035 8.75 11.5889 8.51174 12.257 8.06535C12.9251 7.61895 13.4458 6.98448 13.7533 6.24215C14.0607 5.49983 14.1412 4.683 13.9844 3.89495C13.8277 3.1069 13.4408 2.38303 12.8726 1.81488C12.3045 1.24673 11.5806 0.859814 10.7926 0.703062C10.0045 0.546309 9.18767 0.62676 8.44535 0.934241C7.70302 1.24172 7.06855 1.76242 6.62215 2.4305C6.17576 3.09857 5.9375 3.88402 5.9375 4.6875C5.93882 5.76454 6.36726 6.79708 7.12884 7.55866C7.89042 8.32024 8.92296 8.74868 10 8.75ZM10 1.875C10.5563 1.875 11.1 2.03995 11.5625 2.34899C12.0251 2.65804 12.3855 3.09729 12.5984 3.6112C12.8113 4.12512 12.867 4.69062 12.7585 5.23619C12.6499 5.78176 12.3821 6.2829 11.9887 6.67624C11.5954 7.06957 11.0943 7.33744 10.5487 7.44596C10.0031 7.55448 9.43762 7.49878 8.9237 7.28591C8.40979 7.07304 7.97053 6.71256 7.66149 6.25004C7.35245 5.78753 7.1875 5.24376 7.1875 4.6875C7.18833 3.94183 7.48491 3.22694 8.01218 2.69968C8.53944 2.17241 9.25433 1.87583 10 1.875Z" fill="white"/>
<path d="M9.99438 9.375C7.8418 9.37732 5.77805 10.2334 4.25589 11.7554C2.73373 13.2775 1.87748 15.3412 1.875 17.4937V18.75C1.875 18.9158 1.94085 19.0747 2.05806 19.1919C2.17527 19.3092 2.33424 19.375 2.5 19.375C2.66576 19.375 2.82473 19.3092 2.94194 19.1919C3.05915 19.0747 3.125 18.9158 3.125 18.75V17.4937C3.14227 15.6833 3.87358 13.9529 5.1599 12.6788C6.44623 11.4047 8.18354 10.6899 9.99406 10.6899C11.8046 10.6899 13.5419 11.4047 14.8282 12.6788C16.1145 13.9529 16.8459 15.6833 16.8631 17.4937V18.125H5C4.83424 18.125 4.67527 18.1908 4.55806 18.3081C4.44085 18.4253 4.375 18.5842 4.375 18.75C4.375 18.9158 4.44085 19.0747 4.55806 19.1919C4.67527 19.3092 4.83424 19.375 5 19.375H17.4881C17.6539 19.375 17.8129 19.3092 17.9301 19.1919C18.0473 19.0747 18.1131 18.9158 18.1131 18.75V17.4937C18.1115 15.341 17.2556 13.277 15.7334 11.7548C14.2112 10.2326 12.1471 9.37666 9.99438 9.375Z" fill="white"/>
</svg>
